# xmcd
#
# Track frame offsets: 
#        183
#        10428
#        21845
#        33545
#        46708
#        60063
#        72468
#        84258
#        96078
#        109363
#        121833
#        137143
#
# Disc length: 2010 seconds
#
# Revision: 3
# Processed by: cddbd v1.5.2PL0 Copyright (c) Steve Scherf et al.
# Submitted via: ExactAudioCopy v0.99pb5
#
DISCID=9607d80c
DTITLE=Various Artist - The Millenium Anthology CD 3
DYEAR=1994
DGENRE=Blues
TTITLE0=John Lee Hooker - Dimples
TTITLE1=John Lee Hooker - Boom Boom
TTITLE2=John Lee Hooker - Boogie Chillen
TTITLE3=Elmore James - Dust My Broom
TTITLE4=Elmore James - Standing at the Crossroads
TTITLE5=Elmore James - Blues Before Sunrise
TTITLE6=Muddy Waters - Baby Please Don't Go
TTITLE7=Muddy Waters - Got My Mojo Working
TTITLE8=Muddy Waters - I'm Your Hoochie Coochie Man
TTITLE9=Howlin' Wolf /Ain't Superstitious
TTITLE10=Howlin' Wolf - Killing Floor
TTITLE11=Howlin' Wolf - Highway 49
EXTD=
EXTT0=
EXTT1=
EXTT2=
EXTT3=
EXTT4=
EXTT5=
EXTT6=
EXTT7=
EXTT8=
EXTT9=
EXTT10=
EXTT11=
PLAYORDER=
